<svg width="24" height="24" viewBox="0 0 24 24" fill="none" xmlns="http://www.w3.org/2000/svg">
<path d="M12 1C18.0751 1 23 5.92487 23 12C23 18.0751 18.0751 23 12 23C5.92487 23 1 18.0751 1 12C1 5.92487 5.92487 1 12 1Z" stroke="black" stroke-width="2"/>
<path d="M16.5244 8.31934C16.3311 10.0446 15.7731 13.4906 15.373 15.6807L15.2051 16.5752L15.2041 16.582C15.1707 16.7599 15.1319 16.8821 15.1006 16.9639C15.0493 16.9434 14.9854 16.9141 14.9062 16.8682C14.7922 16.802 14.6686 16.7197 14.5127 16.6113L13.9961 16.2598C13.0432 15.6298 12.3267 15.1238 11.3613 14.4912C11.3985 14.4552 11.4394 14.4161 11.4854 14.3721C11.5685 14.2925 11.666 14.1991 11.7637 14.0986L11.7764 14.085L11.79 14.0703C11.7757 14.0863 11.802 14.0591 11.9199 13.9482C12.0179 13.8561 12.1504 13.733 12.3076 13.5869C12.6203 13.2964 13.0263 12.9199 13.4287 12.541C13.8297 12.1634 14.2354 11.7755 14.5469 11.4629C14.701 11.3081 14.8429 11.1613 14.9521 11.0381C15.0056 10.9778 15.064 10.9092 15.1152 10.8398C15.1406 10.8055 15.1742 10.757 15.207 10.7002C15.2306 10.6595 15.2981 10.5406 15.333 10.3779L15.3545 10.2734V10.2051C15.3546 10.2022 15.3557 10.1831 15.3564 10.1631C15.3579 10.1221 15.3584 10.0461 15.3477 9.95508C15.3302 9.80714 15.2673 9.51173 15.0176 9.26465L14.8984 9.16211L14.8047 9.09863C14.7562 9.06904 14.7075 9.0443 14.6592 9.02344C15.2828 8.77091 15.739 8.59244 16.083 8.46777C16.2688 8.40044 16.4132 8.35357 16.5244 8.31934ZM10.5889 11.0088L8.43164 12.46L8.4209 12.4668C8.04319 12.7283 7.80921 12.7754 7.68164 12.7754C7.60342 12.7753 7.39709 12.7451 7.06641 12.6602C6.88403 12.6133 6.69138 12.5548 6.50195 12.4961C8.80027 11.4911 10.55 10.7427 11.7441 10.2363C11.407 10.4608 11.0219 10.7183 10.5889 11.0088Z" fill="black" stroke="black" stroke-width="2"/>
</svg>
