<svg width="47" height="47" viewBox="0 0 47 47" fill="none" xmlns="http://www.w3.org/2000/svg">
<path d="M7.83366 5.875C5.65991 5.875 3.91699 7.61792 3.91699 9.79167V29.375C3.91699 30.4138 4.32964 31.41 5.06416 32.1445C5.79867 32.879 6.79489 33.2917 7.83366 33.2917H23.5003V43.0833L29.3753 37.2083L35.2503 43.0833V33.2917H39.167C40.2058 33.2917 41.202 32.879 41.9365 32.1445C42.671 31.41 43.0837 30.4138 43.0837 29.375V9.79167C43.0837 8.7529 42.671 7.75668 41.9365 7.02216C41.202 6.28765 40.2058 5.875 39.167 5.875H7.83366ZM23.5003 9.79167L29.3753 13.7083L35.2503 9.79167V16.6458L41.1253 19.5833L35.2503 22.5208V29.375L29.3753 25.4583L23.5003 29.375V22.5208L17.6253 19.5833L23.5003 16.6458V9.79167ZM7.83366 9.79167H17.6253V13.7083H7.83366V9.79167ZM7.83366 17.625H13.7087V21.5417H7.83366V17.625ZM7.83366 25.4583H17.6253V29.375H7.83366V25.4583Z" fill="#CBC301"/>
</svg>
