<svg width="53" height="53" viewBox="0 0 53 53" fill="none" xmlns="http://www.w3.org/2000/svg">
<path d="M10.1859 2.18903C10.0242 2.18499 9.86275 2.20313 9.706 2.24296C7.58497 2.78766 6.27311 4.37849 5.96743 6.24374C5.66185 8.10898 6.19185 10.2131 7.2796 12.2676C9.42185 16.3136 13.8282 20.2466 19.4791 21.1544C18.8984 20.4588 18.3353 19.6798 17.7945 18.8383C13.7566 17.5371 10.5462 14.455 8.92632 11.3956C7.97336 9.59578 7.59656 7.82525 7.80628 6.54517C8.01611 5.2651 8.64186 4.43987 10.1693 4.04755C10.1761 4.04579 10.1764 4.04403 10.1789 4.04206C10.1721 4.02726 10.1897 4.03378 10.1789 4.04206C10.1833 4.05073 10.1895 4.05838 10.1971 4.06453C10.2516 4.11556 10.3719 4.2964 10.4255 4.5966C10.5328 5.1974 10.3828 6.21071 9.58344 7.25488L11.063 8.38754C12.1414 6.9787 12.476 5.48021 12.2596 4.26918C12.1516 3.66361 11.9081 3.11342 11.47 2.70361C11.1415 2.39627 10.6681 2.19979 10.1859 2.18903ZM42.8144 2.18903C42.3323 2.19979 41.859 2.39637 41.5303 2.70371C41.0923 3.11363 40.8488 3.66371 40.7406 4.26928C40.5244 5.48031 40.8589 6.9787 41.9372 8.38765L43.4169 7.25498C42.6176 6.21082 42.4676 5.1975 42.5748 4.5967C42.6284 4.2965 42.7487 4.11566 42.8033 4.06463C42.8108 4.05845 42.817 4.05081 42.8215 4.04217C42.8106 4.03388 42.8282 4.02736 42.8215 4.04217C42.824 4.04413 42.8243 4.04589 42.831 4.04765C44.3585 4.43998 44.9842 5.265 45.1941 6.54517C45.4038 7.82525 45.027 9.59578 44.074 11.3956C42.4541 14.455 39.2438 17.5372 35.2058 18.8383C34.6652 19.6798 34.1018 20.4588 33.5212 21.1544C39.1721 20.2466 43.5785 16.3136 45.7207 12.2676C46.8085 10.2131 47.3385 8.10898 47.0329 6.24374C46.7272 4.37838 45.4154 2.78766 43.2943 2.24296C43.1376 2.20313 42.9761 2.18499 42.8144 2.18903ZM14.2269 2.98744C14.4491 6.76918 15.9619 11.5865 18.0091 15.4946C19.1174 17.6107 20.3771 19.4628 21.6074 20.7413C22.8378 22.0199 24.0158 22.6553 24.8439 22.6553H28.1564C28.9845 22.6553 30.1626 22.0199 31.3929 20.7413C32.6232 19.4628 33.8829 17.6107 34.9912 15.4946C37.0385 11.5864 38.5511 6.76928 38.7734 2.98744H14.2269ZM24.1193 24.5187V26.1749H28.881V24.5187H24.1193ZM24.7865 28.0382C24.532 30.7262 23.4619 34.029 22.2569 35.9054H30.7435C29.5386 34.029 28.4683 30.7262 28.2139 28.0382H24.7865ZM20.8068 37.7687V39.2179H32.1935V37.7687H20.8068ZM17.4943 41.0812V50.8117H35.506V41.0812H17.4943ZM19.8752 43.4621H33.1252V48.4308H19.8752V43.4621Z" fill="#CBC301"/>
</svg>
