<svg width="53" height="53" viewBox="0 0 53 53" fill="none" xmlns="http://www.w3.org/2000/svg">
<path d="M28.6079 1.75554C28.1607 2.15304 24.6826 9.05546 24.6826 9.05546L22.0947 19.494L32.1647 18.5706C32.1647 18.5706 40.5412 2.99358 40.711 2.63335C41.0132 1.97913 41.1747 1.70999 40.0195 1.70999C38.8643 1.70585 29.0261 1.38288 28.6079 1.75554Z" fill="#176CC7"/>
<path d="M33.8209 17.925C33.3199 17.6558 18.5627 17.424 18.2149 17.925C17.9002 18.3804 17.9458 20.4632 18.099 20.7323C18.2522 21.0015 23.2126 23.3078 23.2126 23.3078L23.2085 24.1483C23.2085 24.1483 23.4818 24.8067 26.2477 24.8067C29.0137 24.8067 29.2994 24.2477 29.2994 24.2477L29.3242 23.3989C29.3242 23.3989 33.6677 21.2292 33.8954 21.0387C34.1273 20.8441 34.3219 18.1941 33.8209 17.925ZM29.2745 21.3741C29.2745 21.3741 29.2621 20.7944 28.9764 20.6495C28.6907 20.5046 24.0904 20.5294 23.7012 20.5501C23.312 20.5708 23.312 21.2665 23.312 21.2665L20.1651 19.7344V19.428L31.8831 19.5108L31.9038 19.8586L29.2745 21.3741Z" fill="#FCC417"/>
<path d="M24.5376 21.1875C24.1484 21.1875 23.9248 21.5933 23.9248 22.293C23.9248 22.9473 24.1484 23.498 24.6411 23.4566C25.0469 23.4234 25.1877 22.8023 25.1504 22.2516C25.1132 21.5974 25.0304 21.1875 24.5376 21.1875Z" fill="#FDFFFF"/>
<path d="M12 37.5636C12 47.4845 20.9686 51.9026 26.9311 51.6914C33.5064 51.4554 41.3819 46.3293 40.9057 36.8638C40.4544 27.8952 32.9102 23.6428 26.3763 23.6884C18.7823 23.7422 12 28.8973 12 37.5636Z" fill="#FCC417"/>
<path d="M26.7196 49.9651C26.6161 49.9651 26.5084 49.9651 26.4049 49.9609C23.2995 49.8574 20.2312 48.549 17.987 46.3752C15.5855 44.0481 14.2687 40.9013 14.2853 37.5184C14.3226 29.2578 21.5438 25.4277 26.4422 25.4277H26.4836C33.121 25.4567 38.5701 30.6159 38.7233 37.6095C38.7895 40.7232 37.5142 43.9902 35.0133 46.4497C32.678 48.7395 29.5808 49.9651 26.7196 49.9651ZM26.4339 26.8024C22.0407 26.8024 15.5441 30.3965 15.5275 37.5184C15.5151 42.8432 19.6391 48.3171 26.5084 48.549C29.1253 48.6318 31.8209 47.6298 33.9988 45.4891C36.2596 43.2655 37.5308 40.4002 37.4852 37.626C37.3859 31.6097 32.4668 26.8231 26.496 26.7983C26.4795 26.7983 26.4463 26.8024 26.4339 26.8024Z" fill="#FA912C"/>
<path d="M23.9414 25.0963C23.6557 24.703 20.4178 24.7775 17.3578 27.767C14.4056 30.653 14.0867 33.3734 14.654 33.5308C15.2958 33.7088 16.0784 30.827 18.7822 28.4047C21.2666 26.1853 24.5128 25.8789 23.9414 25.0963ZM36.4668 35.8081C35.4689 35.9489 36.5041 38.9384 34.1895 42.2841C32.1813 45.1866 29.9039 46.2384 30.1689 46.876C30.525 47.729 34.1729 45.6048 35.8623 42.1433C37.3943 39.0088 37.2121 35.7005 36.4668 35.8081Z" fill="#FEFFFA"/>
<path d="M23.1257 31.8912C22.9104 32.21 23.105 35.0049 23.2333 35.1291C23.4818 35.3776 25.3699 34.4873 25.3699 34.4873L25.2995 41.9612C25.2995 41.9612 23.9124 41.9446 23.7675 41.9984C23.4818 42.1061 23.519 44.988 23.7302 45.1287C23.9414 45.2695 29.6016 45.3441 29.8169 45.0584C30.0322 44.7726 29.9784 42.251 29.879 42.1351C29.701 41.9198 28.347 42.0067 28.347 42.0067C28.347 42.0067 28.4629 31.0009 28.4257 30.649C28.3884 30.297 27.9992 30.0776 27.5354 30.1852C27.0717 30.2929 23.2623 31.6841 23.1257 31.8912Z" fill="#FA912C"/>
<path d="M10.5626 1.54055C10.3018 1.7807 20.2766 19.544 20.2766 19.544C20.2766 19.544 21.9494 19.7593 25.6842 19.7924C29.4191 19.8255 31.2699 19.5771 31.2699 19.5771C31.2699 19.5771 23.5145 1.71859 23.0508 1.54055C22.823 1.44945 19.7507 1.41633 16.7487 1.3832C13.7426 1.34594 10.8111 1.30867 10.5626 1.54055Z" fill="#2E9DF4"/>
</svg>
