<svg width="24" height="24" viewBox="0 0 24 24" fill="none" xmlns="http://www.w3.org/2000/svg">
<path d="M11.5 1H12.5C15.2385 1 17.1921 1.00177 18.6758 1.20117C20.1301 1.39667 20.9833 1.76504 21.6084 2.38965V2.39062C22.2337 3.01613 22.6032 3.86929 22.7988 5.32422C22.9983 6.80789 23 8.76137 23 11.5V12.5C23 15.2385 22.9982 17.1921 22.7988 18.6758C22.6154 20.0402 22.2793 20.8751 21.7227 21.4893L21.6094 21.6084C20.9839 22.2337 20.1307 22.6032 18.6758 22.7988C17.1921 22.9983 15.2386 23 12.5 23H11.5C8.76137 23 6.80789 22.9983 5.32422 22.7988C3.95996 22.6154 3.12518 22.2793 2.51074 21.7227L2.39062 21.6084C1.76567 20.9829 1.3967 20.1302 1.20117 18.6758C1.00174 17.1921 1 15.2386 1 12.5V11.5C1 8.76137 1.00174 6.80789 1.20117 5.32422C1.38458 3.95996 1.72068 3.12518 2.27734 2.51074L2.3916 2.39062C3.01674 1.7655 3.86951 1.39667 5.32422 1.20117C6.80794 1.00182 8.76144 1 11.5 1Z" stroke="black" stroke-width="2"/>
<path fill-rule="evenodd" clip-rule="evenodd" d="M6.00332 7.30664H4.25332C3.75332 7.30664 3.65332 7.54164 3.65332 7.80164C3.65332 8.26514 4.24632 10.5641 6.41582 13.6046C7.86182 15.6811 9.89932 16.8066 11.7533 16.8066C12.8658 16.8066 13.0033 16.5566 13.0033 16.1261V14.5566C13.0033 14.0566 13.1083 13.9566 13.4608 13.9566C13.7208 13.9566 14.1658 14.0866 15.2038 15.0876C16.3903 16.2741 16.5858 16.8066 17.2533 16.8066H19.0033C19.5033 16.8066 19.7533 16.5566 19.6088 16.0631C19.4513 15.5716 18.8848 14.8581 18.1328 14.0126C17.7248 13.5306 17.1128 13.0111 16.9278 12.7516C16.6678 12.4181 16.7428 12.2696 16.9278 11.9731C16.9278 11.9731 19.0598 8.96964 19.2828 7.95014C19.3938 7.57914 19.2828 7.30664 18.7528 7.30664H17.0033C16.5583 7.30664 16.3533 7.54164 16.2423 7.80164C16.2423 7.80164 15.3523 9.97064 14.0918 11.3796C13.6838 11.7876 13.4983 11.9176 13.2758 11.9176C13.1648 11.9176 13.0038 11.7876 13.0038 11.4171V7.95014C13.0038 7.50514 12.8743 7.30664 12.5038 7.30664H9.75382C9.47582 7.30664 9.30882 7.51314 9.30882 7.70914C9.30882 8.13064 9.93882 8.22814 10.0038 9.41414V11.9916C10.0038 12.5566 9.90182 12.6591 9.67882 12.6591C9.08582 12.6591 7.64282 10.4801 6.78682 7.98714C6.61882 7.50164 6.45032 7.30664 6.00332 7.30664Z" fill="black"/>
</svg>
